<svg width="28" height="28" viewBox="0 0 28 28" fill="none" xmlns="http://www.w3.org/2000/svg">
<path d="M14.3101 27.7947H14.3047C12.1955 27.7938 10.1043 27.292 8.23023 26.3398L2.45335 27.6643C2.10085 27.745 1.73165 27.6383 1.47506 27.3816C1.21848 27.1248 1.11019 26.7535 1.18775 26.3976L2.43953 20.6624C1.3641 18.6605 0.796269 16.4679 0.793175 14.2939C0.792969 14.2864 0.792969 14.2789 0.792969 14.2716C0.794413 10.6689 2.2079 7.2759 4.77272 4.71786C7.33176 2.16564 10.7187 0.76001 14.3099 0.76001C17.9091 0.761465 21.2907 2.16834 23.8328 4.72119C26.4102 7.30958 27.8289 10.7053 27.8276 14.2824C27.8266 16.9858 27.0224 19.5985 25.5021 21.8378C25.1727 22.3231 24.5155 22.4472 24.0341 22.1152C23.5529 21.7832 23.4296 21.1208 23.759 20.6355C25.038 18.7515 25.7145 16.5544 25.7156 14.2816C25.7166 11.2747 24.5186 8.415 22.3422 6.22931C20.1986 4.07648 17.3458 2.89018 14.3095 2.88894C8.03036 2.88894 2.91825 7.98464 2.90505 14.2525C2.90505 14.2594 2.90526 14.266 2.90526 14.2727C2.90443 16.2128 3.44586 18.18 4.47076 19.9615C4.60338 20.1921 4.64546 20.4642 4.58853 20.7243L3.60819 25.2161L8.14071 24.1768C8.3909 24.1196 8.65326 24.156 8.87891 24.2792C10.535 25.1855 12.4113 25.6649 14.3051 25.6658H14.3099C16.3694 25.6658 18.3919 25.1044 20.1588 24.0427C20.6595 23.7414 21.3078 23.9067 21.6065 24.4117C21.9051 24.9167 21.7414 25.5699 21.2404 25.8712C19.1466 27.1294 16.7503 27.7947 14.3101 27.7947ZM11.3276 8.86157C11.096 8.34431 10.8522 8.32664 10.6319 8.3177H10.0393C9.83306 8.3177 9.49809 8.39546 9.2149 8.70627C8.9315 9.01709 8.13267 9.76845 8.13267 11.2967C8.13267 12.825 9.24068 14.302 9.39517 14.5095C9.54986 14.7165 11.5343 17.953 14.6768 19.1981C17.2887 20.2328 17.8202 20.027 18.387 19.975C18.954 19.9235 20.2165 19.2239 20.4739 18.4985C20.7317 17.7733 20.7317 17.1517 20.6544 17.0218C20.5772 16.8925 20.371 16.8147 20.0618 16.6594C19.7524 16.5041 18.237 15.7396 17.9536 15.6361C17.6702 15.5326 17.4642 15.4808 17.2579 15.7918C17.0517 16.1024 16.4445 16.8207 16.264 17.0278C16.0837 17.2355 15.9032 17.2613 15.5941 17.106C15.2849 16.95 14.2992 16.6164 13.1179 15.5583C12.1986 14.7348 11.5609 13.6849 11.3804 13.3739C11.1999 13.0633 11.361 12.8949 11.5161 12.74C11.6549 12.6009 11.8428 12.4107 11.9975 12.2294C12.1518 12.0481 12.196 11.9186 12.2989 11.7113C12.402 11.504 12.3504 11.3227 12.2733 11.1672C12.196 11.0119 11.6025 9.47572 11.3276 8.86157Z" fill="white"/>
</svg>
